<?xml version="1.0" encoding="UTF-8"?>
<svg id="Layer_1" xmlns="http://www.w3.org/2000/svg" version="1.1" viewBox="0 0 158.1 80.4">
  <!-- Generator: Adobe Illustrator 30.5.1, SVG Export Plug-In . SVG Version: 2.1.4 Build 3)  -->
  <defs>
    <style>
      .st0 {
        display: none;
        font-family: Futura-Medium, Futura;
        font-size: 100px;
        font-weight: 500;
      }
    </style>
  </defs>
  <text class="st0" transform="translate(-10.2 77.8)"><tspan x="0" y="0">vato </tspan></text>
  <path d="M12.3,29.6l12.3,26.7,12.3-26.7h12.4l-24.7,50.8L0,29.6h12.3Z"/>
  <path d="M81.9,30.3h11v47.6h-11v-5c-4.5,4.2-9.4,6.3-14.6,6.3s-12-2.4-16.3-7.1c-4.3-4.9-6.4-10.9-6.4-18.2s2.1-13.1,6.4-17.8c4.3-4.8,9.6-7.1,16-7.1s10.5,2.3,14.9,6.8v-5.5ZM55.8,53.9c0,4.6,1.2,8.3,3.7,11.1,2.5,2.9,5.7,4.3,9.5,4.3s7.4-1.4,9.9-4.2c2.5-2.9,3.8-6.6,3.8-11s-1.3-8.1-3.8-11c-2.5-2.8-5.8-4.2-9.8-4.2s-6.9,1.4-9.5,4.3c-2.5,2.9-3.8,6.5-3.8,10.7Z"/>
  <path d="M105.7,27.8v50h-11V27.8H24.5v-10.3h70.2V0h11v17.6h25.8v10.3h-25.8Z"/>
  <path d="M107.4,53.8c0-6.9,2.5-12.7,7.4-17.5,4.9-4.8,10.9-7.2,18-7.2s13.1,2.4,18.1,7.3c4.9,4.9,7.3,10.8,7.3,17.9s-2.5,13.1-7.4,17.9c-4.9,4.8-11,7.2-18.2,7.2s-13.1-2.4-17.9-7.3c-4.8-4.8-7.2-10.9-7.2-18.2ZM118.6,53.9c0,4.8,1.3,8.5,3.8,11.3,2.6,2.8,6,4.2,10.3,4.2s7.7-1.4,10.3-4.2c2.6-2.8,3.9-6.5,3.9-11.1s-1.3-8.3-3.9-11.1c-2.6-2.8-6-4.2-10.3-4.2s-7.6,1.4-10.2,4.2c-2.6,2.8-3.9,6.4-3.9,10.8Z"/>
</svg>